# xmcd
# 
# Track frame offsets:
#     150
#     21935
#     48972
#     73230
#     89450
#     109157
#     125930
#     148617
#     173647
#     194667
#     216605
#     240302
# 
# Disc length: 3504
# 
# Revision: 5
# Processed by: cddbd v1.5.2PL0 Copyright (c) Steve Scherf et al.
# Submitted via: BonkEnc v1.0
# 
DISCID=bb0dae0c
DTITLE=沢田知可子 - TO YOU!
DYEAR=1990
DGENRE=JPop
TTITLE0=Marie
TTITLE1=I miss you
TTITLE2=彼女の瞳
TTITLE3=LIVE ON THE TURE
TTITLE4=Remember
TTITLE5=HAPPY RVER AFTER
TTITLE6=瞳の中に
TTITLE7=恋人と呼ばせて
TTITLE8=COME INTO MY LIFE
TTITLE9=会いたい
TTITLE10=ひとりぼっちの夜
TTITLE11=微笑って
EXTD=YEAR: 1990
EXTT0=
EXTT1=
EXTT2=
EXTT3=
EXTT4=
EXTT5=
EXTT6=
EXTT7=
EXTT8=
EXTT9=
EXTT10=
EXTT11=
PLAYORDER=
